<?xml version="1.0" encoding="UTF-8" standalone="no"?>
<!DOCTYPE svg PUBLIC "-//W3C//DTD SVG 1.1//EN" "http://www.w3.org/Graphics/SVG/1.1/DTD/svg11.dtd">
<svg width="100%" height="100%" viewBox="0 0 400 400" version="1.1" xmlns="http://www.w3.org/2000/svg" xmlns:xlink="http://www.w3.org/1999/xlink" xml:space="preserve" xmlns:serif="http://www.serif.com/" style="fill-rule:evenodd;clip-rule:evenodd;stroke-linejoin:round;stroke-miterlimit:2;">
    <path d="M200,30c93.826,0 170,76.174 170,170c0,93.826 -76.174,170 -170,170c-93.826,0 -170,-76.174 -170,-170c-0,-93.826 76.174,-170 170,-170Zm-0,30c-77.268,-0 -140,62.732 -140,140c0,77.268 62.732,140 140,140c77.268,-0 140,-62.732 140,-140c0,-77.268 -62.732,-140 -140,-140Z" style="fill:#ebebeb;"/>
    <path d="M300,150l0,37.05l-100,-25l-100,25l0,-37.05l100,-25l100,25Z" style="fill:#ebebeb;"/>
    <path d="M300,225l0,37.05l-100,-25l-100,25l0,-37.05l100,-25l100,25Z" style="fill:#ebebeb;"/>
</svg>
